<mxfile host="Electron" agent="Mozilla/5.0 (Windows NT 10.0; Win64; x64) AppleWebKit/537.36 (KHTML, like Gecko) draw.io/26.0.4 Chrome/128.0.6613.186 Electron/32.2.5 Safari/537.36" version="26.0.4">
  <diagram name="Page-1" id="aZEkN4QwG2QqPaL1eYQu">
    <mxGraphModel dx="1036" dy="614" grid="1" gridSize="10" guides="1" tooltips="1" connect="1" arrows="1" fold="1" page="1" pageScale="1" pageWidth="850" pageHeight="1100" math="0" shadow="0">
      <root>
        <mxCell id="0" />
        <mxCell id="1" parent="0" />
        <mxCell id="re-qyNJTAlaKmxA76k0L-1" value="" style="edgeStyle=none;orthogonalLoop=1;jettySize=auto;html=1;rounded=0;shape=link;" parent="1" edge="1">
          <mxGeometry width="80" relative="1" as="geometry">
            <mxPoint x="10" y="60" as="sourcePoint" />
            <mxPoint x="840" y="60" as="targetPoint" />
            <Array as="points">
              <mxPoint x="400" y="60" />
            </Array>
          </mxGeometry>
        </mxCell>
        <mxCell id="re-qyNJTAlaKmxA76k0L-2" value="&lt;font style=&quot;font-size: 23px;&quot; face=&quot;Times New Roman&quot;&gt;&lt;b&gt;2 Thread PD Data Collection and Saving&lt;/b&gt;&lt;/font&gt;" style="text;strokeColor=none;align=left;fillColor=none;html=1;verticalAlign=middle;whiteSpace=wrap;rounded=0;" parent="1" vertex="1">
          <mxGeometry x="10" y="20" width="620" height="30" as="geometry" />
        </mxCell>
        <mxCell id="b0ae0HyRdjih0DA19DMQ-2" value="&lt;font style=&quot;font-size: 14px; background-color: rgb(169, 196, 235);&quot; face=&quot;Courier New&quot;&gt;EnqueuePDData(...) Thread function&lt;/font&gt;" style="swimlane;whiteSpace=wrap;html=1;fillColor=#dae8fc;strokeColor=#6c8ebf;" vertex="1" parent="1">
          <mxGeometry x="40" y="160" width="360" height="370" as="geometry" />
        </mxCell>
        <mxCell id="b0ae0HyRdjih0DA19DMQ-1" value="&lt;div&gt;Read data from sockfd and push data to queue by calling&lt;/div&gt;&lt;div&gt;&lt;div style=&quot;color: rgb(204, 204, 204); background-color: rgb(31, 31, 31); font-family: Consolas, &amp;quot;Courier New&amp;quot;, monospace; line-height: 19px; white-space: pre;&quot;&gt;&lt;font&gt;&lt;span style=&quot;color: rgb(220, 220, 170);&quot;&gt;enqueue&lt;/span&gt;(&lt;span style=&quot;color: rgb(156, 220, 254);&quot;&gt;gpch1connectionQ&lt;/span&gt;, &lt;span style=&quot;color: rgb(156, 220, 254);&quot;&gt;pu8fulldata&lt;/span&gt;-&amp;gt;&lt;span style=&quot;color: rgb(156, 220, 254);&quot;&gt;data&lt;/span&gt;[&lt;span style=&quot;color: rgb(156, 220, 254);&quot;&gt;i&lt;/span&gt;]);&lt;/font&gt;&lt;/div&gt;&lt;/div&gt;&lt;div&gt;&lt;br&gt;&lt;/div&gt;" style="ellipse;whiteSpace=wrap;html=1;aspect=fixed;fillColor=#d5e8d4;strokeColor=#82b366;" vertex="1" parent="b0ae0HyRdjih0DA19DMQ-2">
          <mxGeometry x="20" y="30" width="330" height="330" as="geometry" />
        </mxCell>
        <mxCell id="b0ae0HyRdjih0DA19DMQ-4" value="&lt;font style=&quot;font-size: 14px; background-color: rgb(169, 196, 235);&quot; face=&quot;Courier New&quot;&gt;ProcessPDDataThread() Thread function&lt;/font&gt;" style="swimlane;whiteSpace=wrap;html=1;fillColor=#dae8fc;strokeColor=#6c8ebf;" vertex="1" parent="1">
          <mxGeometry x="450" y="160" width="360" height="370" as="geometry" />
        </mxCell>
        <mxCell id="b0ae0HyRdjih0DA19DMQ-5" value="&lt;div&gt;Checking the size of each queue as&amp;nbsp;&lt;/div&gt;&lt;div&gt;&lt;div style=&quot;color: rgb(204, 204, 204); background-color: rgb(31, 31, 31); font-family: Consolas, &amp;quot;Courier New&amp;quot;, monospace; line-height: 19px; white-space: pre;&quot;&gt;&lt;div style=&quot;line-height: 19px;&quot;&gt;&lt;font&gt;&lt;span style=&quot;color: rgb(197, 134, 192);&quot;&gt;if&lt;/span&gt; (&lt;span style=&quot;color: rgb(220, 220, 170);&quot;&gt;getSize&lt;/span&gt;(&lt;span style=&quot;color: rgb(156, 220, 254);&quot;&gt;gpch1connectionQ&lt;/span&gt;) &lt;span style=&quot;color: rgb(212, 212, 212);&quot;&gt;&amp;gt;&lt;/span&gt; &lt;span style=&quot;color: rgb(86, 156, 214);&quot;&gt;QUEUE_SIZE_THR&lt;/span&gt; )&lt;/font&gt;&lt;/div&gt;&lt;/div&gt;&lt;/div&gt;&lt;div&gt;If data is filled with desired amount then save the data&amp;nbsp;&lt;/div&gt;&lt;div&gt;in disk.&lt;/div&gt;" style="ellipse;whiteSpace=wrap;html=1;aspect=fixed;fillColor=#d5e8d4;strokeColor=#82b366;" vertex="1" parent="b0ae0HyRdjih0DA19DMQ-4">
          <mxGeometry x="20" y="30" width="330" height="330" as="geometry" />
        </mxCell>
        <mxCell id="b0ae0HyRdjih0DA19DMQ-7" value="&lt;font style=&quot;font-size: 20px;&quot; face=&quot;Lucida Console&quot;&gt;2 Parallel Threads sharing same memory resource&lt;/font&gt;" style="rounded=1;whiteSpace=wrap;html=1;fillColor=#dae8fc;strokeColor=#6c8ebf;shadow=1;" vertex="1" parent="1">
          <mxGeometry x="50" y="80" width="750" height="60" as="geometry" />
        </mxCell>
      </root>
    </mxGraphModel>
  </diagram>
</mxfile>
